:FULLY-SPECIFIED
:FORCE-ALL-JOINTS-BE-3DOF
:DEGREES
1
root -2.95645 16.8291 -36.2757 3.79203 -0.409345 -2.77144
lfemur -18.1857 -3.85478 -7.37129
ltibia 37.6337 0 0
lfoot -17.8071 6.78532 0
ltoes -26.1578 0 0
rfemur -19.1521 0.15077 14.7318
rtibia 40.3652 0 0
rfoot -23.1652 -2.86285 0
rtoes -21.0274 0 0
lowerback 7.02591 2.55716 -1.97249
upperback -3.14202 3.31583 1.27229
thorax -7.43554 1.75645 1.99661
lowerneck -4.68188 -4.04088 -6.84108
upperneck 4.69893 -5.30737 6.47589
head 2.76948 -2.5844 3.14763
lclavicle 1.91563e-15 -9.24349e-15 0
lhumerus -27.0689 -5.33108 89.6453
lradius 25.7364 0 0
lwrist -30.6252 0 0
lhand -28.8405 29.9909 0
lfingers 7.12502 0 0
lthumb -2.19771 59.9594 0
rclavicle 1.91563e-15 -9.24349e-15 0
rhumerus -32.8355 4.71181 -81.727
rradius 32.9783 0 0
rwrist 3.84135 0 0
rhand -24.1523 -25.0894 0
rfingers 7.12502 0 0
rthumb 2.33029 -55.0564 0
2
root -2.95896 16.8281 -36.2821 3.69738 -0.444892 -2.75182
lfemur -18.0873 -3.72329 -7.40262
ltibia 37.6141 0 0
lfoot -17.7936 6.74885 0
ltoes -25.9025 0 0
rfemur -19.106 0.0743895 14.7158
rtibia 40.405 0 0
rfoot -23.1425 -2.71086 0
rtoes -20.6306 0 0
lowerback 7.19181 2.5594 -1.99369
upperback -3.11255 3.31282 1.27153
thorax -7.50091 1.75589 2.00264
lowerneck -4.68724 -4.03367 -6.84097
upperneck 4.67505 -5.29729 6.49096
head 2.76226 -2.57893 3.15314
lclavicle 3.28809e-15 -8.79342e-15 0
lhumerus -27.0484 -5.33334 89.6722
lradius 25.736 0 0
lwrist -30.6114 0 0
lhand -28.8449 29.9831 0
lfingers 7.12502 0 0
lthumb -2.20198 59.9516 0
rclavicle 3.28809e-15 -8.79342e-15 0
rhumerus -32.8195 4.64525 -81.6966
rradius 32.9005 0 0
rwrist 3.84153 0 0
rhand -24.1463 -25.1047 0
rfingers 7.12502 0 0
rthumb 2.33607 -55.0719 0
3
root -2.96131 16.8266 -36.2884 3.60137 -0.478869 -2.7315
lfemur -17.994 -3.57641 -7.43633
ltibia 37.6065 0 0
lfoot -17.7864 6.69985 0
ltoes -25.6168 0 0
rfemur -19.0635 -0.0106531 14.6984
rtibia 40.4561 0 0
rfoot -23.124 -2.55418 0
rtoes -20.2143 0 0
lowerback 7.35922 2.5606 -2.01359
upperback -3.08353 3.30857 1.27066
thorax -7.56749 1.75465 2.00794
lowerneck -4.68855 -4.02619 -6.84072
upperneck 4.65166 -5.28705 6.50503
head 2.75439 -2.57346 3.15834
lclavicle 4.62651e-15 -8.33828e-15 0
lhumerus -27.0272 -5.33366 89.6984
lradius 25.734 0 0
lwrist -30.5978 0 0
lhand -28.8493 29.9755 0
lfingers 7.12502 0 0
lthumb -2.20622 59.9439 0
rclavicle 4.62651e-15 -8.33828e-15 0
rhumerus -32.803 4.57764 -81.6647
rradius 32.8201 0 0
rwrist 3.83918 0 0
rhand -24.1332 -25.124 0
rfingers 7.12502 0 0
rthumb 2.34874 -55.0914 0
4
root -2.96351 16.8246 -36.2945 3.5042 -0.511315 -2.71054
lfemur -17.9057 -3.4151 -7.47227
ltibia 37.6101 0 0
lfoot -17.7854 6.63904 0
ltoes -25.3025 0 0
rfemur -19.0246 -0.103818 14.6797
rtibia 40.5179 0 0
rfoot -23.1095 -2.39325 0
rtoes -19.78 0 0
lowerback 7.52785 2.56081 -2.03222
upperback -3.05495 3.30314 1.26968
thorax -7.63514 1.75278 2.01255
lowerneck -4.68603 -4.01845 -6.84035
upperneck 4.62876 -5.27667 6.51814
head 2.74591 -2.568 3.16324
lclavicle 5.93104e-15 -7.87886e-15 0
lhumerus -27.0055 -5.33215 89.724
lradius 25.7306 0 0
lwrist -30.5845 0 0
lhand -28.8537 29.9679 0
lfingers 7.12502 0 0
lthumb -2.21042 59.9363 0
rclavicle 5.93104e-15 -7.87886e-15 0
rhumerus -32.7862 4.50912 -81.6314
rradius 32.7374 0 0
rwrist 3.83441 0 0
rhand -24.1133 -25.1472 0
rfingers 7.12502 0 0
rthumb 2.36795 -55.1145 0
5
root -2.96557 16.8222 -36.3004 3.40604 -0.542271 -2.689
lfemur -17.8223 -3.2403 -7.51027
ltibia 37.6244 0 0
lfoot -17.7902 6.5671 0
ltoes -24.9614 0 0
rfemur -18.989 -0.204564 14.66
rtibia 40.5896 0 0
rfoot -23.0987 -2.22848 0
rtoes -19.3292 0 0
lowerback 7.69745 2.56009 -2.04963
upperback -3.02684 3.29661 1.26859
thorax -7.70372 1.75031 2.0165
lowerneck -4.67988 -4.01048 -6.83986
upperneck 4.60636 -5.26616 6.53033
head 2.73688 -2.56257 3.16786
lclavicle 7.20187e-15 -7.41593e-15 0
lhumerus -26.9833 -5.32891 89.7488
lradius 25.7257 0 0
lwrist -30.5715 0 0
lhand -28.858 29.9606 0
lfingers 7.12502 0 0
lthumb -2.21458 59.9289 0
rclavicle 7.20187e-15 -7.41593e-15 0
rhumerus -32.7691 4.43981 -81.5969
rradius 32.6524 0 0
rwrist 3.82737 0 0
rhand -24.087 -25.1739 0
rfingers 7.12502 0 0
rthumb 2.39333 -55.1411 0
6
root -2.96748 16.8193 -36.3063 3.30707 -0.571777 -2.66693
lfemur -17.7435 -3.05297 -7.55018
ltibia 37.6489 0 0
lfoot -17.8004 6.48472 0
ltoes -24.5955 0 0
rfemur -18.9568 -0.312353 14.6391
rtibia 40.6707 0 0
rfoot -23.0916 -2.06029 0
rtoes -18.8633 0 0
lowerback 7.86773 2.55847 -2.06586
upperback -2.99921 3.28903 1.26741
thorax -7.7731 1.74727 2.01981
lowerneck -4.6703 -4.0023 -6.83927
upperneck 4.58446 -5.25555 6.54162
head 2.72733 -2.55715 3.17219
lclavicle 8.43914e-15 -6.95031e-15 0
lhumerus -26.9606 -5.32402 89.773
lradius 25.7196 0 0
lwrist -30.5587 0 0
lhand -28.8622 29.9533 0
lfingers 7.12502 0 0
lthumb -2.2187 59.9216 0
rclavicle 8.43914e-15 -6.95031e-15 0
rhumerus -32.7516 4.36986 -81.5611
rradius 32.5656 0 0
rwrist 3.81818 0 0
rhand -24.0548 -25.204 0
rfingers 7.12502 0 0
rthumb 2.4245 -55.1709 0
7
root -2.96925 16.816 -36.312 3.20748 -0.599873 -2.64441
lfemur -17.6692 -2.85407 -7.59183
ltibia 37.6828 0 0
lfoot -17.8158 6.39261 0
ltoes -24.2067 0 0
rfemur -18.9277 -0.426644 14.6172
rtibia 40.7605 0 0
rfoot -23.0879 -1.8891 0
rtoes -18.3838 0 0
lowerback 8.03843 2.55603 -2.08095
upperback -2.97206 3.28049 1.26614
thorax -7.84312 1.74371 2.02252
lowerneck -4.65749 -3.99394 -6.83856
upperneck 4.56307 -5.24486 6.55206
head 2.7173 -2.55177 3.17626
lclavicle 9.64304e-15 -6.48277e-15 0
lhumerus -26.9376 -5.3176 89.7966
lradius 25.7123 0 0
lwrist -30.5462 0 0
lhand -28.8665 29.9463 0
lfingers 7.12502 0 0
lthumb -2.22278 59.9145 0
rclavicle 9.64304e-15 -6.48277e-15 0
rhumerus -32.734 4.29939 -81.5243
rradius 32.477 0 0
rwrist 3.80698 0 0
rhand -24.0168 -25.2373 0
rfingers 7.12502 0 0
rthumb 2.46112 -55.2038 0
8
root -2.9709 16.8123 -36.3175 3.10744 -0.626599 -2.62148
lfemur -17.5992 -2.64454 -7.63506
ltibia 37.7257 0 0
lfoot -17.836 6.29144 0
ltoes -23.7968 0 0
rfemur -18.9015 -0.546898 14.5945
rtibia 40.8584 0 0
rfoot -23.0874 -1.71534 0
rtoes -17.8922 0 0
lowerback 8.20926 2.5528 -2.09496
upperback -2.94541 3.27104 1.26479
thorax -7.91366 1.73965 2.02466
lowerneck -4.64167 -3.98541 -6.83777
upperneck 4.54218 -5.23411 6.56167
head 2.70684 -2.54642 3.18006
lclavicle 1.08137e-14 -6.0141e-15 0
lhumerus -26.9142 -5.30973 89.8194
lradius 25.7038 0 0
lwrist -30.534 0 0
lhand -28.8706 29.9393 0
lfingers 7.12502 0 0
lthumb -2.2268 59.9075 0
rclavicle 1.08137e-14 -6.0141e-15 0
rhumerus -32.7161 4.22854 -81.4865
rradius 32.387 0 0
rwrist 3.7939 0 0
rhand -23.9737 -25.2734 0
rfingers 7.12502 0 0
rthumb 2.5028 -55.2394 0
9
root -2.97241 16.8082 -36.3229 3.00714 -0.651995 -2.59821
lfemur -17.5335 -2.42536 -7.67972
ltibia 37.7768 0 0
lfoot -17.8607 6.18193 0
ltoes -23.3677 0 0
rfemur -18.8783 -0.672573 14.571
rtibia 40.9638 0 0
rfoot -23.09 -1.53942 0
rtoes -17.39 0 0
lowerback 8.37997 2.54884 -2.10791
upperback -2.91926 3.26076 1.26336
thorax -7.98458 1.73514 2.02626
lowerneck -4.62302 -3.97674 -6.83688
upperneck 4.52179 -5.22331 6.5705
head 2.69598 -2.54112 3.18361
lclavicle 1.19514e-14 -5.54511e-15 0
lhumerus -26.8905 -5.30052 89.8416
lradius 25.6943 0 0
lwrist -30.5221 0 0
lhand -28.8747 29.9326 0
lfingers 7.12502 0 0
lthumb -2.23077 59.9007 0
rclavicle 1.19514e-14 -5.54511e-15 0
rhumerus -32.698 4.15743 -81.448
rradius 32.2957 0 0
rwrist 3.77906 0 0
rhand -23.9256 -25.3123 0
rfingers 7.12502 0 0
rthumb 2.54919 -55.2776 0
10
root -2.97381 16.8038 -36.3282 2.90676 -0.676102 -2.57466
lfemur -17.4718 -2.19746 -7.72563
ltibia 37.8357 0 0
lfoot -17.8896 6.06475 0
ltoes -22.9214 0 0
rfemur -18.8577 -0.803131 14.5467
rtibia 41.076 0 0
rfoot -23.0954 -1.36177 0
rtoes -16.8786 0 0
lowerback 8.55028 2.5442 -2.11986
upperback -2.89365 3.24971 1.26187
thorax -8.05573 1.7302 2.02735
lowerneck -4.60177 -3.96796 -6.83591
upperneck 4.50191 -5.2125 6.57856
head 2.68477 -2.53587 3.18692
lclavicle 1.30561e-14 -5.07656e-15 0
lhumerus -26.8666 -5.29007 89.8631
lradius 25.6838 0 0
lwrist -30.5105 0 0
lhand -28.8788 29.926 0
lfingers 7.12502 0 0
lthumb -2.23469 59.894 0
rclavicle 1.30561e-14 -5.07656e-15 0
rhumerus -32.6799 4.08621 -81.4087
rradius 32.2034 0 0
rwrist 3.76261 0 0
rhand -23.8731 -25.3535 0
rfingers 7.12502 0 0
rthumb 2.59991 -55.3182 0
11
root -2.97509 16.7991 -36.3333 2.80647 -0.69896 -2.55088
lfemur -17.4141 -1.9618 -7.77265
ltibia 37.9018 0 0
lfoot -17.9224 5.94061 0
ltoes -22.4596 0 0
rfemur -18.8397 -0.938032 14.5218
rtibia 41.1944 0 0
rfoot -23.1034 -1.18281 0
rtoes -16.3596 0 0
lowerback 8.71991 2.53893 -2.13085
upperback -2.86856 3.23797 1.26031
thorax -8.12697 1.72488 2.02796
lowerneck -4.5781 -3.95908 -6.83487
upperneck 4.48255 -5.20168 6.58591
head 2.67326 -2.53066 3.19
lclavicle 1.41282e-14 -4.60927e-15 0
lhumerus -26.8425 -5.27846 89.884
lradius 25.6724 0 0
lwrist -30.4992 0 0
lhand -28.8828 29.9195 0
lfingers 7.12502 0 0
lthumb -2.23855 59.8875 0
rclavicle 1.41282e-14 -4.60927e-15 0
rhumerus -32.6616 4.015 -81.3688
rradius 32.1102 0 0
rwrist 3.74468 0 0
rhand -23.8165 -25.397 0
rfingers 7.12502 0 0
rthumb 2.65461 -55.3609 0
12
root -2.97626 16.7942 -36.3382 2.70646 -0.720608 -2.52693
lfemur -17.3601 -1.71935 -7.8206
ltibia 37.9743 0 0
lfoot -17.9588 5.81019 0
ltoes -21.9843 0 0
rfemur -18.8242 -1.07673 14.4963
rtibia 41.3184 0 0
rfoot -23.114 -1.00296 0
rtoes -15.8344 0 0
lowerback 8.8886 2.53308 -2.14092
upperback -2.84402 3.22559 1.2587
thorax -8.19817 1.7192 2.02812
lowerneck -4.55223 -3.95012 -6.83375
upperneck 4.46369 -5.19088 6.59257
head 2.66148 -2.52553 3.19286
lclavicle 1.51677e-14 -4.14401e-15 0
lhumerus -26.8184 -5.2658 89.9043
lradius 25.6602 0 0
lwrist -30.4881 0 0
lhand -28.8867 29.9132 0
lfingers 7.12502 0 0
lthumb -2.24234 59.8812 0
rclavicle 1.51677e-14 -4.14401e-15 0
rhumerus -32.6433 3.94393 -81.3284
rradius 32.0165 0 0
rwrist 3.72539 0 0
rhand -23.7561 -25.4425 0
rfingers 7.12502 0 0
rthumb 2.71292 -55.4055 0
13
root -2.97733 16.789 -36.3431 2.60691 -0.741087 -2.50288
lfemur -17.3097 -1.47105 -7.86934
ltibia 38.0528 0 0
lfoot -17.9983 5.6742 0
ltoes -21.4974 0 0
rfemur -18.8109 -1.2187 14.4705
rtibia 41.4474 0 0
rfoot -23.1268 -0.822646 0
rtoes -15.3044 0 0
lowerback 9.05607 2.52671 -2.15012
upperback -2.82003 3.21266 1.25705
thorax -8.26919 1.71321 2.02786
lowerneck -4.52436 -3.94112 -6.83258
upperneck 4.44536 -5.18013 6.59858
head 2.64947 -2.52045 3.19551
lclavicle 1.61748e-14 -3.68158e-15 0
lhumerus -26.7941 -5.25219 89.9238
lradius 25.6473 0 0
lwrist -30.4773 0 0
lhand -28.8906 29.907 0
lfingers 7.12502 0 0
lthumb -2.24607 59.875 0
rclavicle 1.61748e-14 -3.68158e-15 0
rhumerus -32.625 3.87313 -81.2877
rradius 31.9225 0 0
rwrist 3.70488 0 0
rhand -23.6924 -25.4898 0
rfingers 7.12502 0 0
rthumb 2.77447 -55.4518 0
